<svg width="89" height="40" viewBox="0 0 89 40" fill="none" xmlns="http://www.w3.org/2000/svg">
<path d="M0.75 2C0.75 0.895431 1.64543 0 2.75 0H86.75C87.8546 0 88.75 0.895431 88.75 2V38C88.75 39.1046 87.8546 40 86.75 40H2.75C1.64543 40 0.75 39.1046 0.75 38V2Z" fill="white"/>
<g clip-path="url(#clip0)">
<path d="M19.2812 16.1094C20.2135 15.0625 21.4792 14.5391 23.0781 14.5391C24.6771 14.5391 25.9427 15.0625 26.875 16.1094C27.8073 17.1562 28.2734 18.5755 28.2734 20.3672C28.2734 22.1589 27.8073 23.5781 26.875 24.625C25.9427 25.6667 24.6771 26.1875 23.0781 26.1875C21.4792 26.1875 20.2135 25.6667 19.2812 24.625C18.349 23.5781 17.8828 22.1589 17.8828 20.3672C17.8828 18.5755 18.349 17.1562 19.2812 16.1094ZM25.8125 17.0625C25.1406 16.2448 24.2292 15.8359 23.0781 15.8359C21.9271 15.8359 21.013 16.2448 20.3359 17.0625C19.6641 17.875 19.3281 18.9766 19.3281 20.3672C19.3281 21.7526 19.6641 22.8542 20.3359 23.6719C21.013 24.4844 21.9271 24.8906 23.0781 24.8906C24.2292 24.8906 25.1406 24.4844 25.8125 23.6719C26.4896 22.8542 26.8281 21.7526 26.8281 20.3672C26.8281 18.9766 26.4896 17.875 25.8125 17.0625ZM35.9062 17.875V18.9922H33.2812V26H31.9375V18.9922H29.3125V17.875H35.9062ZM38.5078 26H37.1641V17.875H38.8125L41.7031 24.2031H41.7656L44.6719 17.875H46.2578V26H44.9062V20.2344H44.8516L42.2266 25.7656H41.1875L38.5625 20.2344H38.5078V26ZM51.4297 18.9141C50.7995 18.9141 50.276 19.1328 49.8594 19.5703C49.4479 20.0026 49.2214 20.5599 49.1797 21.2422H53.5938C53.5781 20.5547 53.3724 19.9948 52.9766 19.5625C52.5807 19.1302 52.0651 18.9141 51.4297 18.9141ZM53.5625 23.6719H54.8984C54.7786 24.3906 54.4036 24.9818 53.7734 25.4453C53.1484 25.9089 52.3958 26.1406 51.5156 26.1406C50.3542 26.1406 49.4401 25.7656 48.7734 25.0156C48.1068 24.2656 47.7734 23.25 47.7734 21.9688C47.7734 20.6979 48.1068 19.6745 48.7734 18.8984C49.4453 18.1224 50.3385 17.7344 51.4531 17.7344C52.5469 17.7344 53.4115 18.1016 54.0469 18.8359C54.6823 19.5703 55 20.5547 55 21.7891V22.3047H49.1719V22.3828C49.1719 23.1641 49.3854 23.7891 49.8125 24.2578C50.2396 24.7266 50.8177 24.9609 51.5469 24.9609C52.0573 24.9609 52.4922 24.8438 52.8516 24.6094C53.2109 24.375 53.4479 24.0625 53.5625 23.6719ZM61.8594 26V22.3438H57.8516V26H56.5078V17.875H57.8516V21.2266H61.8594V17.875H63.2031V26H61.8594ZM67.8047 24.9844C68.4453 24.9844 68.9818 24.7865 69.4141 24.3906C69.8516 23.9896 70.0703 23.4974 70.0703 22.9141V22.25L67.8984 22.3828C67.3516 22.4193 66.9271 22.5521 66.625 22.7812C66.3281 23.0104 66.1797 23.3177 66.1797 23.7031C66.1797 24.0885 66.3281 24.3984 66.625 24.6328C66.9219 24.8672 67.3151 24.9844 67.8047 24.9844ZM67.5 26.1406C66.6927 26.1406 66.0391 25.9167 65.5391 25.4688C65.0443 25.0208 64.7969 24.4323 64.7969 23.7031C64.7969 23.0052 65.0521 22.4479 65.5625 22.0312C66.0781 21.6146 66.8047 21.3802 67.7422 21.3281L70.0703 21.1953V20.5156C70.0703 20.0208 69.9141 19.6328 69.6016 19.3516C69.2891 19.0703 68.8516 18.9297 68.2891 18.9297C67.7734 18.9297 67.3542 19.0443 67.0312 19.2734C66.7083 19.4974 66.5026 19.8125 66.4141 20.2188H65.1016C65.1484 19.4948 65.4609 18.901 66.0391 18.4375C66.6224 17.9688 67.3828 17.7344 68.3203 17.7344C69.2734 17.7344 70.0286 17.974 70.5859 18.4531C71.1484 18.9323 71.4297 19.5755 71.4297 20.3828V26H70.1406V24.6016H70.1094C69.8646 25.0651 69.5052 25.4375 69.0312 25.7188C68.5573 26 68.0469 26.1406 67.5 26.1406Z" fill="#595959"/>
</g>
<path d="M2.75 1H86.75V-1H2.75V1ZM87.75 2V38H89.75V2H87.75ZM86.75 39H2.75V41H86.75V39ZM1.75 38V2H-0.25V38H1.75ZM2.75 39C2.19771 39 1.75 38.5523 1.75 38H-0.25C-0.25 39.6569 1.09314 41 2.75 41V39ZM87.75 38C87.75 38.5523 87.3023 39 86.75 39V41C88.4069 41 89.75 39.6569 89.75 38H87.75ZM86.75 1C87.3023 1 87.75 1.44771 87.75 2H89.75C89.75 0.343147 88.4069 -1 86.75 -1V1ZM2.75 -1C1.09315 -1 -0.25 0.343147 -0.25 2H1.75C1.75 1.44772 2.19772 1 2.75 1V-1Z" fill="#D9D9D9"/>
<defs>
<clipPath id="clip0">
<rect x="16.75" y="8" width="56" height="24" fill="white"/>
</clipPath>
</defs>
</svg>
