<svg width="124" height="41" viewBox="0 0 124 41" fill="none" xmlns="http://www.w3.org/2000/svg">
<path d="M0 2.763C0 1.65843 0.89543 0.763 2 0.763H122C123.105 0.763 124 1.65843 124 2.763V38.763C124 39.8676 123.105 40.763 122 40.763H2C0.895429 40.763 0 39.8676 0 38.763V2.763Z" fill="#1890FF"/>
<g clip-path="url(#clip0)">
<path d="M21.9219 26.763H17.6641V15.4896H21.9375C22.901 15.4896 23.6797 15.7474 24.2734 16.263C24.8724 16.7786 25.1719 17.4583 25.1719 18.3021C25.1719 18.8906 24.9818 19.4245 24.6016 19.9036C24.2266 20.3776 23.7682 20.664 23.2266 20.763V20.8255C23.9922 20.9245 24.6016 21.2239 25.0547 21.7239C25.513 22.2239 25.7422 22.8489 25.7422 23.5989C25.7422 24.5937 25.4036 25.3698 24.7266 25.9271C24.0547 26.4844 23.1198 26.763 21.9219 26.763ZM19.0703 16.7318V20.3489H21.1797C22.013 20.3489 22.6484 20.1875 23.0859 19.8646C23.5286 19.5416 23.75 19.0755 23.75 18.4661C23.75 17.9088 23.5651 17.4818 23.1953 17.1849C22.8255 16.8828 22.2995 16.7318 21.6172 16.7318H19.0703ZM19.0703 25.5208H21.7109C22.5599 25.5208 23.2031 25.3515 23.6406 25.013C24.0781 24.6745 24.2969 24.1797 24.2969 23.5286C24.2969 22.2161 23.3906 21.5599 21.5781 21.5599H19.0703V25.5208ZM33.3125 22.4818L37.2188 26.763H35.4688L31.9609 22.8568H31.8984V26.763H30.5547V18.638H31.8984V22.2318H31.9609L35.4297 18.638H37.1094L33.3125 22.4818ZM41.5703 26.9036C40.4349 26.9036 39.5234 26.526 38.8359 25.7708C38.1484 25.0104 37.8047 23.987 37.8047 22.7005C37.8047 21.414 38.1484 20.3932 38.8359 19.638C39.5234 18.8776 40.4349 18.4974 41.5703 18.4974C42.7005 18.4974 43.6094 18.8776 44.2969 19.638C44.9844 20.3932 45.3281 21.414 45.3281 22.7005C45.3281 23.9818 44.9844 25.0026 44.2969 25.763C43.6094 26.5234 42.7005 26.9036 41.5703 26.9036ZM39.8281 24.9114C40.2604 25.4427 40.8411 25.7083 41.5703 25.7083C42.2995 25.7083 42.8776 25.4453 43.3047 24.9193C43.7318 24.388 43.9453 23.6484 43.9453 22.7005C43.9453 21.7526 43.7318 21.0156 43.3047 20.4896C42.8776 19.9583 42.2995 19.6927 41.5703 19.6927C40.8411 19.6927 40.2604 19.9583 39.8281 20.4896C39.401 21.0208 39.1875 21.7578 39.1875 22.7005C39.1875 23.6432 39.401 24.3802 39.8281 24.9114ZM50.7891 18.4974C51.8307 18.4974 52.6693 18.8802 53.3047 19.6458C53.9453 20.4114 54.2656 21.4297 54.2656 22.7005C54.2656 23.9661 53.9479 24.9844 53.3125 25.7552C52.6771 26.5208 51.8464 26.9036 50.8203 26.9036C50.2474 26.9036 49.7344 26.7734 49.2812 26.513C48.8281 26.2526 48.4792 25.8958 48.2344 25.4427H48.2031V29.4739H46.8438V18.638H48.1328V20.013H48.1641C48.4193 19.5443 48.776 19.1745 49.2344 18.9036C49.6927 18.6328 50.2109 18.4974 50.7891 18.4974ZM50.5234 25.7083C51.2474 25.7083 51.8203 25.4375 52.2422 24.8958C52.6641 24.3541 52.875 23.6224 52.875 22.7005C52.875 21.7786 52.6641 21.0469 52.2422 20.5052C51.8203 19.9635 51.2474 19.6927 50.5234 19.6927C49.8255 19.6927 49.263 19.9687 48.8359 20.5208C48.4089 21.0729 48.1953 21.7995 48.1953 22.7005C48.1953 23.6068 48.4089 24.3359 48.8359 24.888C49.263 25.4349 49.8255 25.7083 50.5234 25.7083ZM58.4844 26.9036C57.5885 26.9036 56.8464 26.7005 56.2578 26.2943C55.6693 25.8828 55.3411 25.3359 55.2734 24.6536H56.6484C56.7266 25.0078 56.9245 25.2838 57.2422 25.4818C57.5651 25.6797 57.9792 25.7786 58.4844 25.7786C59.0625 25.7786 59.513 25.6562 59.8359 25.4114C60.1589 25.1614 60.3203 24.8333 60.3203 24.4271C60.3203 23.9739 60.1693 23.6406 59.8672 23.4271C59.5651 23.2083 59.1042 23.0989 58.4844 23.0989H57.2656V21.9896H58.4844C59.526 21.9896 60.0469 21.5937 60.0469 20.8021C60.0469 20.4479 59.9167 20.164 59.6562 19.9505C59.401 19.737 59.0208 19.6302 58.5156 19.6302C58.0365 19.6302 57.6406 19.7265 57.3281 19.9193C57.0156 20.112 56.8307 20.3698 56.7734 20.6927H55.4531C55.5417 20.0208 55.8594 19.487 56.4062 19.0911C56.9531 18.6953 57.6562 18.4974 58.5156 18.4974C59.4219 18.4974 60.125 18.6979 60.625 19.0989C61.125 19.4948 61.375 20.026 61.375 20.6927C61.375 21.1094 61.25 21.4818 61 21.8099C60.7552 22.138 60.4323 22.3489 60.0312 22.4427V22.5052C60.5573 22.6198 60.9583 22.8411 61.2344 23.1693C61.5156 23.4922 61.6562 23.8906 61.6562 24.3646C61.6562 25.125 61.3646 25.7396 60.7812 26.2083C60.2031 26.6719 59.4375 26.9036 58.4844 26.9036ZM64.5547 26.763H63.2109V18.638H64.5547V24.6849H64.6172L68.6797 18.638H70.0234V26.763H68.6797V20.7161H68.6172L64.5547 26.763ZM77.2812 26.763V23.1068H73.2734V26.763H71.9297V18.638H73.2734V21.9896H77.2812V18.638H78.625V26.763H77.2812ZM81.2188 29.8021C80.974 29.8021 80.7786 29.7864 80.6328 29.7552V28.6146C80.7578 28.6406 80.9349 28.6536 81.1641 28.6536C81.5443 28.6536 81.849 28.5521 82.0781 28.3489C82.3073 28.151 82.5 27.8151 82.6562 27.3411L82.8438 26.7708L79.8438 18.638H81.2969L83.5469 25.4036H83.5703L85.8203 18.638H87.25L84.0547 27.3333C83.7057 28.2812 83.3281 28.9297 82.9219 29.2786C82.5208 29.6276 81.9531 29.8021 81.2188 29.8021Z" fill="white"/>
<path d="M106.42 23.7302H97.1154L97.5826 22.7786L105.345 22.7646C105.608 22.7646 105.833 22.5771 105.879 22.3177L106.954 16.3005C106.983 16.1427 106.94 15.9802 106.837 15.8568C106.786 15.796 106.723 15.7471 106.651 15.7133C106.579 15.6796 106.501 15.6619 106.422 15.6614L96.5466 15.6286L96.4622 15.2318C96.4091 14.9786 96.181 14.7943 95.9216 14.7943H93.5076C93.3613 14.7943 93.221 14.8524 93.1175 14.9558C93.0141 15.0592 92.956 15.1995 92.956 15.3458C92.956 15.4921 93.0141 15.6324 93.1175 15.7358C93.221 15.8393 93.3613 15.8974 93.5076 15.8974H95.4747L95.8435 17.6505L96.7513 22.0458L95.5826 23.9536C95.5219 24.0355 95.4853 24.1328 95.477 24.2344C95.4687 24.336 95.4891 24.438 95.5357 24.5286C95.6294 24.7146 95.8185 24.8318 96.0279 24.8318H97.0091C96.7999 25.1096 96.6869 25.448 96.6872 25.7958C96.6872 26.6802 97.406 27.3989 98.2904 27.3989C99.1747 27.3989 99.8935 26.6802 99.8935 25.7958C99.8935 25.4474 99.7779 25.1083 99.5716 24.8318H102.089C101.88 25.1096 101.767 25.448 101.767 25.7958C101.767 26.6802 102.486 27.3989 103.37 27.3989C104.254 27.3989 104.973 26.6802 104.973 25.7958C104.973 25.4474 104.858 25.1083 104.651 24.8318H106.422C106.725 24.8318 106.973 24.5849 106.973 24.2802C106.972 24.1341 106.914 23.9942 106.81 23.8912C106.706 23.7881 106.566 23.7303 106.42 23.7302ZM96.7763 16.7161L105.773 16.7458L104.892 21.6802L97.8247 21.6927L96.7763 16.7161ZM98.2904 26.2896C98.0185 26.2896 97.7966 26.0677 97.7966 25.7958C97.7966 25.5239 98.0185 25.3021 98.2904 25.3021C98.5622 25.3021 98.7841 25.5239 98.7841 25.7958C98.7841 25.9268 98.7321 26.0524 98.6395 26.1449C98.5469 26.2375 98.4213 26.2896 98.2904 26.2896ZM103.37 26.2896C103.098 26.2896 102.876 26.0677 102.876 25.7958C102.876 25.5239 103.098 25.3021 103.37 25.3021C103.642 25.3021 103.864 25.5239 103.864 25.7958C103.864 25.9268 103.812 26.0524 103.719 26.1449C103.627 26.2375 103.501 26.2896 103.37 26.2896Z" fill="white"/>
</g>
<defs>
<clipPath id="clip0">
<rect x="16" y="8.763" width="92" height="24" fill="white"/>
</clipPath>
</defs>
</svg>
