<svg width="150" height="40" viewBox="0 0 150 40" fill="none" xmlns="http://www.w3.org/2000/svg">
<path d="M0.109619 2C0.109619 0.895431 1.00505 0 2.10962 0H147.11C148.214 0 149.11 0.895431 149.11 2V38C149.11 39.1046 148.214 40 147.11 40H2.10962C1.00505 40 0.109619 39.1046 0.109619 38V2Z" fill="#1890FF"/>
<g clip-path="url(#clip0)">
<path d="M18.3831 16.1094C19.3153 15.0625 20.581 14.5391 22.1799 14.5391C23.7789 14.5391 25.0445 15.0625 25.9768 16.1094C26.9091 17.1562 27.3752 18.5755 27.3752 20.3672C27.3752 22.1589 26.9091 23.5781 25.9768 24.625C25.0445 25.6667 23.7789 26.1875 22.1799 26.1875C20.581 26.1875 19.3153 25.6667 18.3831 24.625C17.4508 23.5781 16.9846 22.1589 16.9846 20.3672C16.9846 18.5755 17.4508 17.1562 18.3831 16.1094ZM24.9143 17.0625C24.2424 16.2448 23.331 15.8359 22.1799 15.8359C21.0289 15.8359 20.1148 16.2448 19.4377 17.0625C18.7659 17.875 18.4299 18.9766 18.4299 20.3672C18.4299 21.7526 18.7659 22.8542 19.4377 23.6719C20.1148 24.4844 21.0289 24.8906 22.1799 24.8906C23.331 24.8906 24.2424 24.4844 24.9143 23.6719C25.5914 22.8542 25.9299 21.7526 25.9299 20.3672C25.9299 18.9766 25.5914 17.875 24.9143 17.0625ZM32.8752 24.9453V18.9297C32.0055 18.9505 31.3153 19.2292 30.8049 19.7656C30.2945 20.3021 30.0393 21.026 30.0393 21.9375C30.0393 22.849 30.2945 23.5729 30.8049 24.1094C31.3153 24.6406 32.0055 24.9193 32.8752 24.9453ZM36.2502 24.1094C36.7607 23.5729 37.0159 22.849 37.0159 21.9375C37.0159 21.026 36.7607 20.3047 36.2502 19.7734C35.745 19.237 35.0575 18.9557 34.1877 18.9297V24.9453C35.0575 24.9245 35.745 24.6458 36.2502 24.1094ZM32.8752 26.1016C31.6044 26.0755 30.5862 25.6875 29.8206 24.9375C29.0549 24.1875 28.6721 23.1875 28.6721 21.9375C28.6721 20.6875 29.0549 19.6875 29.8206 18.9375C30.5862 18.1823 31.6044 17.7943 32.8752 17.7734V15.2031H34.1877V17.7734C35.4534 17.7995 36.469 18.1901 37.2346 18.9453C38.0002 19.6953 38.3831 20.6927 38.3831 21.9375C38.3831 23.1875 38.0002 24.1901 37.2346 24.9453C36.469 25.6953 35.4534 26.0807 34.1877 26.1016V28.7109H32.8752V26.1016ZM43.2815 26.1406C42.1461 26.1406 41.2346 25.763 40.5471 25.0078C39.8596 24.2474 39.5159 23.224 39.5159 21.9375C39.5159 20.651 39.8596 19.6302 40.5471 18.875C41.2346 18.1146 42.1461 17.7344 43.2815 17.7344C44.4117 17.7344 45.3206 18.1146 46.0081 18.875C46.6956 19.6302 47.0393 20.651 47.0393 21.9375C47.0393 23.2188 46.6956 24.2396 46.0081 25C45.3206 25.7604 44.4117 26.1406 43.2815 26.1406ZM41.5393 24.1484C41.9716 24.6797 42.5523 24.9453 43.2815 24.9453C44.0107 24.9453 44.5888 24.6823 45.0159 24.1562C45.443 23.625 45.6565 22.8854 45.6565 21.9375C45.6565 20.9896 45.443 20.2526 45.0159 19.7266C44.5888 19.1953 44.0107 18.9297 43.2815 18.9297C42.5523 18.9297 41.9716 19.1953 41.5393 19.7266C41.1122 20.2578 40.8987 20.9948 40.8987 21.9375C40.8987 22.8802 41.1122 23.6172 41.5393 24.1484ZM52.5002 17.7344C53.5419 17.7344 54.3805 18.1172 55.0159 18.8828C55.6565 19.6484 55.9768 20.6667 55.9768 21.9375C55.9768 23.2031 55.6591 24.2214 55.0237 24.9922C54.3883 25.7578 53.5575 26.1406 52.5315 26.1406C51.9586 26.1406 51.4456 26.0104 50.9924 25.75C50.5393 25.4896 50.1903 25.1328 49.9456 24.6797H49.9143V28.7109H48.5549V17.875H49.844V19.25H49.8752C50.1305 18.7812 50.4872 18.4115 50.9456 18.1406C51.4039 17.8698 51.9221 17.7344 52.5002 17.7344ZM52.2346 24.9453C52.9586 24.9453 53.5315 24.6745 53.9534 24.1328C54.3752 23.5911 54.5862 22.8594 54.5862 21.9375C54.5862 21.0156 54.3752 20.2839 53.9534 19.7422C53.5315 19.2005 52.9586 18.9297 52.2346 18.9297C51.5367 18.9297 50.9742 19.2057 50.5471 19.7578C50.12 20.3099 49.9065 21.0365 49.9065 21.9375C49.9065 22.8438 50.12 23.5729 50.5471 24.125C50.9742 24.6719 51.5367 24.9453 52.2346 24.9453ZM58.8284 26H57.4846V17.875H59.1331L62.0237 24.2031H62.0862L64.9924 17.875H66.5784V26H65.2268V20.2344H65.1721L62.5471 25.7656H61.5081L58.8831 20.2344H58.8284V26ZM69.8284 26H68.4846V17.875H69.8284V23.9219H69.8909L73.9534 17.875H75.2971V26H73.9534V19.9531H73.8909L69.8284 26ZM83.1487 17.875V18.9922H80.5237V26H79.1799V18.9922H76.5549V17.875H83.1487ZM87.2659 21.5859H85.7502V24.8828H87.2659C87.7919 24.8828 88.2112 24.7318 88.5237 24.4297C88.8414 24.1276 89.0002 23.7292 89.0002 23.2344C89.0002 22.7344 88.8414 22.3359 88.5237 22.0391C88.2112 21.737 87.7919 21.5859 87.2659 21.5859ZM84.4065 26V17.875H85.7502V20.4688H87.2893C88.2216 20.4688 88.9638 20.7188 89.5159 21.2188C90.068 21.7188 90.344 22.3906 90.344 23.2344C90.344 24.0781 90.068 24.75 89.5159 25.25C88.9638 25.75 88.2216 26 87.2893 26H84.4065ZM97.8206 26.1406C96.9247 26.1406 96.1825 25.9375 95.594 25.5312C95.0055 25.1198 94.6773 24.5729 94.6096 23.8906H95.9846C96.0627 24.2448 96.2607 24.5208 96.5784 24.7188C96.9013 24.9167 97.3153 25.0156 97.8206 25.0156C98.3987 25.0156 98.8492 24.8932 99.1721 24.6484C99.495 24.3984 99.6565 24.0703 99.6565 23.6641C99.6565 23.2109 99.5055 22.8776 99.2034 22.6641C98.9013 22.4453 98.4403 22.3359 97.8206 22.3359H96.6018V21.2266H97.8206C98.8622 21.2266 99.3831 20.8307 99.3831 20.0391C99.3831 19.6849 99.2528 19.401 98.9924 19.1875C98.7372 18.974 98.357 18.8672 97.8518 18.8672C97.3726 18.8672 96.9768 18.9635 96.6643 19.1562C96.3518 19.349 96.1669 19.6068 96.1096 19.9297H94.7893C94.8778 19.2578 95.1956 18.724 95.7424 18.3281C96.2893 17.9323 96.9924 17.7344 97.8518 17.7344C98.7581 17.7344 99.4612 17.9349 99.9612 18.3359C100.461 18.7318 100.711 19.263 100.711 19.9297C100.711 20.3464 100.586 20.7188 100.336 21.0469C100.091 21.375 99.7685 21.5859 99.3674 21.6797V21.7422C99.8935 21.8568 100.295 22.0781 100.571 22.4062C100.852 22.7292 100.992 23.1276 100.992 23.6016C100.992 24.362 100.701 24.9766 100.117 25.4453C99.5393 25.9089 98.7737 26.1406 97.8206 26.1406ZM105.235 24.9844C105.875 24.9844 106.412 24.7865 106.844 24.3906C107.281 23.9896 107.5 23.4974 107.5 22.9141V22.25L105.328 22.3828C104.781 22.4193 104.357 22.5521 104.055 22.7812C103.758 23.0104 103.61 23.3177 103.61 23.7031C103.61 24.0885 103.758 24.3984 104.055 24.6328C104.352 24.8672 104.745 24.9844 105.235 24.9844ZM104.93 26.1406C104.123 26.1406 103.469 25.9167 102.969 25.4688C102.474 25.0208 102.227 24.4323 102.227 23.7031C102.227 23.0052 102.482 22.4479 102.992 22.0312C103.508 21.6146 104.235 21.3802 105.172 21.3281L107.5 21.1953V20.5156C107.5 20.0208 107.344 19.6328 107.031 19.3516C106.719 19.0703 106.281 18.9297 105.719 18.9297C105.203 18.9297 104.784 19.0443 104.461 19.2734C104.138 19.4974 103.933 19.8125 103.844 20.2188H102.531C102.578 19.4948 102.891 18.901 103.469 18.4375C104.052 17.9688 104.813 17.7344 105.75 17.7344C106.703 17.7344 107.459 17.974 108.016 18.4531C108.578 18.9323 108.86 19.5755 108.86 20.3828V26H107.571V24.6016H107.539C107.295 25.0651 106.935 25.4375 106.461 25.7188C105.987 26 105.477 26.1406 104.93 26.1406ZM113.492 21.7188L117.399 26H115.649L112.141 22.0938H112.078V26H110.735V17.875H112.078V21.4688H112.141L115.61 17.875H117.289L113.492 21.7188ZM120.985 24.9844C121.625 24.9844 122.162 24.7865 122.594 24.3906C123.031 23.9896 123.25 23.4974 123.25 22.9141V22.25L121.078 22.3828C120.531 22.4193 120.107 22.5521 119.805 22.7812C119.508 23.0104 119.36 23.3177 119.36 23.7031C119.36 24.0885 119.508 24.3984 119.805 24.6328C120.102 24.8672 120.495 24.9844 120.985 24.9844ZM120.68 26.1406C119.873 26.1406 119.219 25.9167 118.719 25.4688C118.224 25.0208 117.977 24.4323 117.977 23.7031C117.977 23.0052 118.232 22.4479 118.742 22.0312C119.258 21.6146 119.985 21.3802 120.922 21.3281L123.25 21.1953V20.5156C123.25 20.0208 123.094 19.6328 122.781 19.3516C122.469 19.0703 122.031 18.9297 121.469 18.9297C120.953 18.9297 120.534 19.0443 120.211 19.2734C119.888 19.4974 119.683 19.8125 119.594 20.2188H118.281C118.328 19.4948 118.641 18.901 119.219 18.4375C119.802 17.9688 120.563 17.7344 121.5 17.7344C122.453 17.7344 123.209 17.974 123.766 18.4531C124.328 18.9323 124.61 19.5755 124.61 20.3828V26H123.321V24.6016H123.289C123.045 25.0651 122.685 25.4375 122.211 25.7188C121.737 26 121.227 26.1406 120.68 26.1406ZM129.196 26.1406C128.3 26.1406 127.558 25.9375 126.969 25.5312C126.38 25.1198 126.052 24.5729 125.985 23.8906H127.36C127.438 24.2448 127.636 24.5208 127.953 24.7188C128.276 24.9167 128.69 25.0156 129.196 25.0156C129.774 25.0156 130.224 24.8932 130.547 24.6484C130.87 24.3984 131.031 24.0703 131.031 23.6641C131.031 23.2109 130.88 22.8776 130.578 22.6641C130.276 22.4453 129.815 22.3359 129.196 22.3359H127.977V21.2266H129.196C130.237 21.2266 130.758 20.8307 130.758 20.0391C130.758 19.6849 130.628 19.401 130.367 19.1875C130.112 18.974 129.732 18.8672 129.227 18.8672C128.748 18.8672 128.352 18.9635 128.039 19.1562C127.727 19.349 127.542 19.6068 127.485 19.9297H126.164C126.253 19.2578 126.571 18.724 127.117 18.3281C127.664 17.9323 128.367 17.7344 129.227 17.7344C130.133 17.7344 130.836 17.9349 131.336 18.3359C131.836 18.7318 132.086 19.263 132.086 19.9297C132.086 20.3464 131.961 20.7188 131.711 21.0469C131.466 21.375 131.143 21.5859 130.742 21.6797V21.7422C131.268 21.8568 131.67 22.0781 131.946 22.4062C132.227 22.7292 132.367 23.1276 132.367 23.6016C132.367 24.362 132.076 24.9766 131.492 25.4453C130.914 25.9089 130.149 26.1406 129.196 26.1406Z" fill="white"/>
</g>
<defs>
<clipPath id="clip0">
<rect x="16.1096" y="8" width="117" height="24" fill="white"/>
</clipPath>
</defs>
</svg>
